<svg xmlns="http://www.w3.org/2000/svg" width="90" height="28" viewBox="0 0 90 28">
    <defs>
        <linearGradient id="7uawdeap8a" x1="45.294%" x2="54.103%" y1="81.78%" y2="21.844%">
            <stop offset="0%" stop-color="#FEBF30"/>
            <stop offset="36%" stop-color="#FEBD2F"/>
            <stop offset="58%" stop-color="#FCB42D"/>
            <stop offset="75%" stop-color="#FAA629"/>
            <stop offset="91%" stop-color="#F79224"/>
            <stop offset="100%" stop-color="#F58220"/>
        </linearGradient>
        <linearGradient id="f2x15ujbub" x1="20.45%" x2="58.293%" y1="97.932%" y2="45.916%">
            <stop offset="0%" stop-color="#0E76BC"/>
            <stop offset="39%" stop-color="#1D76BD"/>
            <stop offset="54%" stop-color="#247ABF"/>
            <stop offset="64%" stop-color="#3081C2"/>
            <stop offset="72%" stop-color="#418BC7"/>
            <stop offset="79%" stop-color="#5797CE"/>
            <stop offset="86%" stop-color="#72A7D7"/>
            <stop offset="91%" stop-color="#91B9E0"/>
            <stop offset="96%" stop-color="#B6CEEB"/>
            <stop offset="97%" stop-color="#B8CFEC"/>
            <stop offset="100%" stop-color="#83B0DE"/>
        </linearGradient>
    </defs>
    <g fill="none" fill-rule="evenodd">
        <g>
            <g>
                <g>
                    <g>
                        <path fill="#FFFFFE" d="M4.378 8.475h5.345c1.796 0 3.222-.695 3.222-2.413 0-1.777-1.277-2.322-3.344-2.322H4.378v4.735zm0 9.451h5.587c2.222 0 3.499-.973 3.499-3.172 0-1.903-1.64-2.622-3.283-2.622H4.378v5.794zM0 0h10.605c5.348 0 6.713 3.317 6.713 5.55 0 3.108-1.759 3.982-2.673 4.438 2.673.993 3.372 3.105 3.372 5.246 0 1.72-.73 3.355-1.882 4.465-1.244 1.212-2.428 1.97-6.899 1.97H0V0zM31.722 17.37c.907-.533 1.916-1.651 2.187-2.119.583-1.035.95-2.493.95-4.414 0-5.762-3.3-7.194-5.644-7.194-2.341 0-5.639 1.432-5.639 7.194 0 5.76 3.298 7.195 5.639 7.195.398 0 1.412-.017 2.507-.662zm2 3.377c-1.768.854-3.912.923-4.507.923-2.746 0-9.98-1.172-9.98-10.833C19.235 1.174 26.469 0 29.215 0 31.966 0 39.2 1.174 39.2 10.837c0 3.381-.9 5.735-2.17 7.34 0 0-1.46 1.675-3.309 2.57zM53.323 13.232l2.188 2.033c.576-1.06.952-2.495.952-4.418 0-5.767-3.287-7.2-5.618-7.2-2.333 0-5.62 1.433-5.62 7.2 0 5.765 3.287 7.201 5.62 7.201.719 0 1.555-.138 2.331-.54l-2.073-1.956 2.22-2.32zm5.272 9.411l-2.45-2.33c-1.96 1.153-4.09 1.377-5.3 1.377-2.736 0-9.94-1.173-9.94-10.843C40.904 1.176 48.108 0 50.844 0c2.741 0 9.94 1.176 9.94 10.847 0 3.385-.896 5.74-2.16 7.348l2.245 2.117-2.275 2.331z" transform="translate(-852.000000, -2824.000000) translate(709.000000, 2809.000000) translate(143.000000, 15.000000) translate(3.165217, 3.165217)"/>
                        <g fill-rule="nonzero">
                            <path fill="#FFF" d="M0 .054v16.63h2.552v4.986h16.44l-.015-4.595-.013-.838-.005-.108c-.036-.592-.418-1.182-1.014-1.766l-.167-.158-7.142-6.556-6.754-6.175L2.872.56C2.346.113 1.578-.053.582.015L0 .055z" transform="translate(-852.000000, -2824.000000) translate(709.000000, 2809.000000) translate(143.000000, 15.000000) translate(3.165217, 3.165217) translate(64.521739, 0.000000)"/>
                            <path fill="url(#7uawdeap8a)" d="M3.176 16.054V3.314c0-1.189-.252-1.861-.65-2.24l-.084-.07L2.401.97 2.303.904h-.028l-.108-.06h-.021l-.14-.07c-.045 0-.094-.03-.14-.043l-.15-.04L1.56.668 1.39.642C1.133.628.878.628.623.642v15.412h2.552z" transform="translate(-852.000000, -2824.000000) translate(709.000000, 2809.000000) translate(143.000000, 15.000000) translate(3.165217, 3.165217) translate(64.521739, 0.000000)"/>
                            <path fill="url(#f2x15ujbub)" d="M18.336 16.04c-.039-.237-.266-.573-.894-1.292 0 0-14.923-13.67-14.926-13.678.39.383.635 1.044.635 2.244V21.04h15.216v-4.522c.004-.16-.006-.32-.031-.478z" transform="translate(-852.000000, -2824.000000) translate(709.000000, 2809.000000) translate(143.000000, 15.000000) translate(3.165217, 3.165217) translate(64.521739, 0.000000)"/>
                        </g>
                    </g>
                </g>
            </g>
        </g>
    </g>
</svg>
